<mxfile host="app.diagrams.net" modified="2024-05-04T21:10:20.341Z" agent="Mozilla/5.0 (X11; Linux x86_64) AppleWebKit/537.36 (KHTML, like Gecko) Chrome/123.0.0.0 Safari/537.36" etag="WWWnNttXynGYkPb1g8zC" version="24.3.1" type="device">
  <diagram name="Page-1" id="aRczgVmSaupT7IyL448k">
    <mxGraphModel dx="894" dy="623" grid="0" gridSize="10" guides="1" tooltips="1" connect="1" arrows="1" fold="1" page="0" pageScale="1" pageWidth="850" pageHeight="1100" math="0" shadow="0">
      <root>
        <mxCell id="0" />
        <mxCell id="1" parent="0" />
        <mxCell id="6VvCPqUBvir3JxE7os8D-1" value="&lt;b&gt;Travel and Transport&lt;/b&gt;" style="rounded=1;whiteSpace=wrap;html=1;" vertex="1" parent="1">
          <mxGeometry x="139" y="170" width="120" height="60" as="geometry" />
        </mxCell>
        <mxCell id="6VvCPqUBvir3JxE7os8D-3" value="&lt;b&gt;Health and Well-being&lt;/b&gt;" style="rounded=1;whiteSpace=wrap;html=1;" vertex="1" parent="1">
          <mxGeometry x="302" y="170" width="120" height="60" as="geometry" />
        </mxCell>
        <mxCell id="6VvCPqUBvir3JxE7os8D-4" value="&lt;b&gt;Work and Jobs&lt;/b&gt;" style="rounded=1;whiteSpace=wrap;html=1;" vertex="1" parent="1">
          <mxGeometry x="464" y="170" width="120" height="60" as="geometry" />
        </mxCell>
        <mxCell id="6VvCPqUBvir3JxE7os8D-5" value="&lt;b&gt;Technology and Media&lt;/b&gt;" style="rounded=1;whiteSpace=wrap;html=1;" vertex="1" parent="1">
          <mxGeometry x="622" y="170" width="120" height="60" as="geometry" />
        </mxCell>
        <mxCell id="6VvCPqUBvir3JxE7os8D-6" value="&lt;b&gt;Expressing Opinions and Preferences&lt;/b&gt;" style="rounded=1;whiteSpace=wrap;html=1;" vertex="1" parent="1">
          <mxGeometry x="-17" y="170" width="120" height="60" as="geometry" />
        </mxCell>
        <mxCell id="6VvCPqUBvir3JxE7os8D-7" value="&lt;b&gt;Expressing Opinions and Preferences&lt;/b&gt;" style="rounded=1;whiteSpace=wrap;html=1;" vertex="1" parent="1">
          <mxGeometry x="186" y="432" width="120" height="60" as="geometry" />
        </mxCell>
      </root>
    </mxGraphModel>
  </diagram>
</mxfile>
